<?xml version="1.0" standalone="no"?>
<!DOCTYPE svg PUBLIC "-//W3C//DTD SVG 20010904//EN"
 "http://www.w3.org/TR/2001/REC-SVG-20010904/DTD/svg10.dtd">
<svg version="1.0" xmlns="http://www.w3.org/2000/svg"
 width="160.000000pt" height="160.000000pt" viewBox="0 0 160.000000 160.000000"
 preserveAspectRatio="xMidYMid meet">
<metadata>
Created by potrace 1.11, written by Peter Selinger 2001-2013
</metadata>
<g transform="translate(0.000000,160.000000) scale(0.100000,-0.100000)"
fill="#000000" stroke="none">
<path d="M430 800 l0 -700 80 0 80 0 1 528 2 527 17 -120 c10 -66 22 -158 25
-205 4 -47 9 -87 10 -90 2 -3 7 -75 11 -160 4 -85 8 -168 9 -185 2 -16 3 -90
4 -162 l1 -133 130 0 130 0 1 188 c1 103 3 207 4 232 2 25 6 90 9 145 8 110
22 261 36 370 5 39 10 79 10 89 0 11 2 17 5 14 3 -3 5 -238 5 -522 l0 -517 87
3 88 3 0 698 0 697 -126 0 -126 0 -22 -137 c-12 -76 -27 -160 -31 -188 -15
-81 -40 -299 -53 -460 l-13 -150 -7 120 c-13 198 -63 555 -109 768 l-10 47
-124 0 -124 0 0 -700z"/>
</g>
</svg>
