<svg width="116" height="117" viewBox="0 0 116 117" fill="none" xmlns="http://www.w3.org/2000/svg">
<path fill-rule="evenodd" clip-rule="evenodd" d="M58 0.034111C25.9675 0.034111 0 26.0016 0 58.0341C0 90.0666 25.9675 116.034 58 116.034C90.0325 116.034 116 90.0666 116 58.0341C116 58.0143 116 57.9945 116 57.9747H111.966C111.966 57.9945 111.966 58.0143 111.966 58.0341C111.966 87.8575 87.7893 112.034 57.9658 112.034C28.1423 112.034 3.96582 87.8575 3.96582 58.0341C3.96582 28.2107 28.1423 4.03412 57.9658 4.03412C57.9773 4.03412 57.9885 4.03413 58 4.03413V0.034111Z" fill="#DB202C"/>
<path fill-rule="evenodd" clip-rule="evenodd" d="M58 0.034111C25.9675 0.034111 0 26.0016 0 58.0341C0 90.0666 25.9675 116.034 58 116.034C90.0325 116.034 116 90.0666 116 58.0341C116 58.0143 116 57.9945 116 57.9747H111.966C111.966 57.9945 111.966 58.0143 111.966 58.0341C111.966 87.8575 87.7893 112.034 57.9658 112.034C28.1423 112.034 3.96582 87.8575 3.96582 58.0341C3.96582 28.2107 28.1423 4.03412 57.9658 4.03412C57.9773 4.03412 57.9885 4.03413 58 4.03413V0.034111Z" fill="url(#paint0_linear)"/>
<defs>
<linearGradient id="paint0_linear" x1="22" y1="21.5" x2="136" y2="100" gradientUnits="userSpaceOnUse">
<stop stop-color="#DB202C"/>
<stop offset="1" stop-color="#77161D"/>
</linearGradient>
</defs>
</svg>
